# xmcd
#
# Track frame offsets:
#	150
#	18228
#	30813
#	49980
#	66244
#	78433
#	92473
#	108097
#	123885
#	136836
#
# Disc length: 2087 seconds
#
# Revision: 0
# Processed by: cddbd v1.5.2PL0 Copyright (c) Steve Scherf et al.
# Submitted via: EasyCDDAExtractor 15.2.1.1
#
DISCID=6d08250a
DTITLE=Musti ja Hyvä vainu - Laulunjälkiä
DYEAR=2012
DGENRE=Gospel
TTITLE0=En vaihtaisi
TTITLE1=Minä ja naapurin Kalle
TTITLE2=Armon ihmeet
TTITLE3=Outo
TTITLE4=Nuorukaisten iltalaulu
TTITLE5=Taivaallinen talo
TTITLE6=Autuas
TTITLE7=Jeesukselta suojan saa
TTITLE8=Siellä se kotini
TTITLE9=Rohkeasti
EXTD=
EXTT0=
EXTT1=
EXTT2=
EXTT3=
EXTT4=
EXTT5=
EXTT6=
EXTT7=
EXTT8=
EXTT9=
PLAYORDER=
